<?xml version="1.0" encoding="UTF-8" standalone="no"?>
<svg width="268px" height="82px" viewBox="0 0 268 82" version="1.1" xmlns="http://www.w3.org/2000/svg" xmlns:xlink="http://www.w3.org/1999/xlink">
    <!-- Generator: sketchtool 41.2 (35397) - http://www.bohemiancoding.com/sketch -->
    <title>B146F114-709C-4C1E-B242-EA5A03C5EB46</title>
    <desc>Created with sketchtool.</desc>
    <defs></defs>
    <g id="Welcome" stroke="none" stroke-width="1" fill="none" fill-rule="evenodd">
        <g id="Desktop-Header-+-Footer-v3" transform="translate(-140.000000, -79.000000)">
            <g id="Logo" transform="translate(139.000000, 79.000000)">
                <g id="Group">
                    <g transform="translate(3.000000, 0.000000)">
                        <path d="M39.1,23.6 C37.6,23.9 35.7,27.9 36.3,29.3 C36.4,29.6 36.6,29.7 36.8,29.7 C37.5,29.7 38.5,28.4 39.1,26.7 C39.4,25.8 40,23.6 39.1,23.6" id="Shape" fill="#B6DCD7"></path>
                        <path d="M46.7,16.8 L46.7,16.8 C44,17.2 40.7,20.8 42,22.8 C42.3,23.3 42.9,23.6 43.6,23.6 C45.3,23.6 47.6,22.2 48.2,19.9 C48.4,18.9 48.4,16.8 46.7,16.8" id="Shape" fill="#B6DCD7"></path>
                        <path d="M30.3,44.6 C29.8,44.6 29.2,44.7 28.7,44.8 C27.9,45 25.7,45.6 26.1,46.4 C26.5,46.9 27.5,47.1 28.6,47.1 C30.1,47.1 31.8,46.7 32.4,45.9 C32.9,45.1 31.9,44.6 30.3,44.6" id="Shape" fill="#B6DCD7"></path>
                        <path d="M19.5,40.2 C19.1,40.2 18.7,40.2 18.3,40.4 C17.3,40.7 15.5,41.7 16.4,43.2 C17.4,44.5 19.6,45.4 21.4,45.4 C22.5,45.4 23.5,45.1 23.9,44.3 C24.8,42.6 22.3,40.2 19.5,40.2" id="Shape" fill="#B6DCD7"></path>
                        <path d="M52,46.4 C52.1,46.4 52.3,46.3 52.4,46.2 C52.9,44.8 50.4,41.1 48.8,41 L48.7,41 C47.6,41 48.1,43 49.7,44.8 C50.1,45.3 51.3,46.4 52,46.4" id="Shape" fill="#B6DCD7"></path>
                        <path d="M51.7,49.1 C51.6,49.1 51.6,49.1 51.7,49.1 C49.5,49.2 48.8,53.6 51.1,55.9 C51.6,56.4 52.4,56.9 53.2,56.9 C53.7,56.9 54.2,56.7 54.5,56.1 C55.4,53.7 53.9,49.1 51.7,49.1" id="Shape" fill="#B6DCD7"></path>
                        <path d="M76.9,30.7 C77.3,30.7 77.6,30.5 77.7,30 C78.3,27.6 74.2,21.8 71.9,21.7 C70.5,22 72,25.3 72.6,26.5 C74,29 75.8,30.7 76.9,30.7" id="Shape" fill="#2CAFA4"></path>
                        <path d="M69.3,21.8 C70.1,19.1 65.4,15.8 62,15.8 L61.4,15.8 C59.2,16.3 59.9,19 60.6,20.2 C61.8,22.4 64.3,23.5 66.4,23.5 C67.8,23.4 69,22.8 69.3,21.8" id="Shape" fill="#2CAFA4"></path>
                        <path d="M69.1,26.6 C67.9,25.9 66.9,25.6 66,25.6 C64.3,25.6 63.3,26.7 63,28.2 C62.5,31.9 66.5,36.5 69.9,36.5 C70.2,36.5 70.5,36.5 70.8,36.4 C74.2,35.5 73.7,29.8 69.1,26.6" id="Shape" fill="#2CAFA4"></path>
                        <path d="M76.7,33.1 L76.5,33.1 C74.3,34 74.1,38.9 74.6,42.1 C75.1,45.2 76.5,47.6 77.9,47.6 C78.3,47.6 78.8,47.3 79.2,46.8 C81.6,43.5 80.3,33.1 76.7,33.1" id="Shape" fill="#2CAFA4"></path>
                        <path d="M8.6,19.1 C9.6,19.1 11.3,16.8 11.9,15.9 C13.8,12.8 14.2,9.7 12.7,9.7 C12.6,9.7 12.5,9.7 12.3,9.8 C9.9,10.5 6.9,16.9 8.1,19 C8.3,19.1 8.4,19.1 8.6,19.1" id="Shape" fill="#2CAFA4"></path>
                        <path d="M9.9,21.1 L9.5,21.1 C6.6,21.8 6.2,28.2 8.2,30.9 C8.6,31.4 9.1,31.5 9.6,31.5 C10.8,31.5 11.9,30.3 12.4,29.4 C14.4,26 12.4,21.1 9.9,21.1" id="Shape" fill="#2CAFA4"></path>
                        <path d="M17,23.5 C17.4,23.5 17.9,23.4 18.3,23.2 C22,21.8 24,15 21.4,12.4 C20.8,11.8 20.2,11.6 19.4,11.6 C17,11.6 14.1,14.5 13.8,18.9 C13.8,22.1 15.3,23.5 17,23.5" id="Shape" fill="#2CAFA4"></path>
                        <path d="M17.3,9.7 C19.4,9.7 22.5,8 24.4,6.4 C27.6,3.7 29.1,0.4 26.2,0.1 L25.8,0.1 C21.6,0.1 13.5,6.4 15.7,9.3 C16.1,9.6 16.7,9.7 17.3,9.7" id="Shape" fill="#2CAFA4"></path>
                        <path d="M33.1,73.7 L32.7,73.7 C29,73.7 26.2,75.1 27.6,76.4 C28.3,77.1 29.9,77.4 31.6,77.4 C34.1,77.4 37,76.7 37.7,75.5 C38,74.2 34.4,73.8 33.1,73.7" id="Shape" fill="#2CAFA4"></path>
                        <path d="M44.6,66.5 L44.6,66.5 C40.3,66.5 37,71.2 38.8,73.2 C39.3,73.7 40,74 40.9,74 C43.4,74 47,71.8 48,69.4 C48.6,67.3 46,66.5 44.6,66.5" id="Shape" fill="#2CAFA4"></path>
                        <path d="M34.7,70.6 C38.2,68.6 38.1,66 36.3,64.5 C35.3,63.7 33.8,63.3 32.3,63.3 C29.2,63.3 25.9,64.8 25.3,67.2 C24.7,69.6 27.2,71.5 30.5,71.5 C31.8,71.6 33.3,71.3 34.7,70.6" id="Shape" fill="#2CAFA4"></path>
                        <path d="M18.6,67.7 C17.1,67.2 15.7,66.9 14.6,66.9 C12.7,66.9 11.6,67.7 12.3,69.3 C13.5,72.1 19.3,75.1 22.9,75.1 C24.2,75.1 25.1,74.7 25.5,73.8 C25.8,71.5 21.6,68.8 18.6,67.7" id="Shape" fill="#2CAFA4"></path>
                        <path d="M54.1,19.6 L54.1,19.6 C51.7,19.6 49.9,20.9 50.1,22.5 C50.3,24.1 52.4,25.4 54.8,25.4 L54.8,25.4 C57.2,25.4 58.9,24.1 58.7,22.5 C58.6,20.9 56.5,19.6 54.1,19.6" id="Shape" fill="#9BD0CA"></path>
                        <path d="M53.9,17.4 L53.9,17.4 C56,17.4 57.6,16.6 57.6,15.7 C57.6,14.7 56,14 53.9,14 L53.8,14 C51.8,14 50.1,14.8 50.1,15.7 C50.2,16.6 51.9,17.4 53.9,17.4" id="Shape" fill="#9BD0CA"></path>
                        <path d="M16.5,29.4 C16.1,29.4 15.7,29.5 15.3,29.8 C14,30.8 14,33.3 15.1,35.3 C16,36.8 17.3,37.7 18.4,37.7 C18.8,37.7 19.2,37.6 19.6,37.3 C20.9,36.3 20.9,33.8 19.8,31.8 C18.9,30.3 17.7,29.4 16.5,29.4" id="Shape" fill="#9BD0CA"></path>
                        <path d="M10.5,34.1 C10.3,34.1 10.2,34.1 10.1,34.2 C9.3,34.7 9.4,36.5 10.4,38.3 C11.3,39.8 12.4,40.8 13.3,40.8 C13.5,40.8 13.6,40.8 13.7,40.7 C14.5,40.2 14.4,38.4 13.4,36.6 C12.5,35.1 11.3,34.1 10.5,34.1" id="Shape" fill="#9BD0CA"></path>
                        <path d="M47.8,56.3 C47.5,56.2 47.2,56.1 46.9,56.1 C45.5,56.1 43.9,57.2 42.9,58.9 C41.7,61 41.9,63.1 43.4,63.8 C43.7,63.9 44,64 44.3,64 C45.7,64 47.3,62.9 48.3,61.2 C49.5,59.1 49.2,56.9 47.8,56.3" id="Shape" fill="#9BD0CA"></path>
                        <path d="M53.7,59.8 C53.6,59.7 53.4,59.7 53.2,59.7 C52.4,59.7 51.2,60.7 50.3,62.1 C49.3,63.9 49.1,65.7 49.9,66.2 C50,66.3 50.2,66.3 50.4,66.3 C51.2,66.3 52.4,65.3 53.3,63.9 C54.3,62.1 54.5,60.3 53.7,59.8" id="Shape" fill="#9BD0CA"></path>
                        <path d="M38.1,33.4 L38,33.4 C37.5,34 38.1,36.1 38.8,36.5 L39,36.5 C39.4,36.5 39.5,35.6 39.1,34.5 C38.8,34.2 38.4,33.4 38.1,33.4" id="Shape" fill="#D8EBE8"></path>
                        <path d="M37.2,40 C36.8,40 36.2,40.4 35.7,41 C35.4,41.3 34.8,42.3 35.2,42.4 L35.3,42.4 C36.1,42.4 37.5,40.9 37.5,40.2 C37.5,40.1 37.4,40 37.2,40" id="Shape" fill="#D8EBE8"></path>
                        <path d="M42,39.3 C41.7,39.3 41.5,39.3 41.3,39.4 C40.8,39.7 41.6,40.4 42.9,40.6 C43.1,40.6 43.3,40.7 43.6,40.7 C44,40.7 44.4,40.6 44.4,40.4 C44.2,39.7 42.9,39.3 42,39.3" id="Shape" fill="#D8EBE8"></path>
                        <path d="M28.7,32.6 C28.3,32.1 27.1,30.9 26.4,30.9 C26.2,30.9 26.1,31 26,31.1 C25.5,32.5 28,36.2 29.6,36.3 L29.7,36.3 C30.7,36.4 30.2,34.4 28.7,32.6" id="Shape" fill="#4c88c9"></path>
                        <path d="M26.8,28.3 C28.9,28.2 29.7,23.8 27.4,21.5 C26.9,21 26.1,20.5 25.3,20.5 C24.8,20.5 24.3,20.7 24,21.3 C23,23.7 24.5,28.3 26.8,28.3 L26.8,28.3" id="Shape" fill="#4c88c9"></path>
                        <path d="M41.5,47.8 C40.8,47.8 39.8,49.1 39.2,50.9 C38.9,51.7 38.4,53.9 39.3,53.9 C40.8,53.6 42.7,49.6 42.1,48.2 C41.9,47.9 41.7,47.8 41.5,47.8" id="Shape" fill="#4c88c9"></path>
                        <path d="M34.8,53.9 C33.1,53.9 30.8,55.3 30.2,57.6 C29.9,58.6 30,60.6 31.7,60.6 L31.8,60.6 C34.4,60.2 37.7,56.6 36.5,54.6 C36,54.1 35.5,53.9 34.8,53.9" id="Shape" fill="#4c88c9"></path>
                        <path d="M49.8,30.4 C48.3,30.4 46.6,30.8 46,31.6 C45.5,32.3 46.5,32.9 48.1,32.9 C48.6,32.9 49.1,32.8 49.7,32.7 C50.5,32.5 52.7,31.9 52.3,31.1 C51.9,30.6 50.9,30.4 49.8,30.4" id="Shape" fill="#4c88c9"></path>
                        <path d="M61.9,34.2 C60.9,32.9 58.7,32 56.9,32 C55.8,32 54.8,32.3 54.4,33.1 C53.6,34.7 56.1,37.1 58.8,37.1 C59.2,37.1 59.6,37.1 60,36.9 C61,36.8 62.8,35.8 61.9,34.2" id="Shape" fill="#4c88c9"></path>
                        <path d="M45.3,3.7 L45.7,3.7 C49.4,3.7 52.2,2.3 50.8,1 C50.1,0.3 48.5,0 46.8,0 C44.3,0 41.4,0.7 40.7,1.9 C40.4,3.2 44,3.6 45.3,3.7" id="Shape" fill="#005288"></path>
                        <path d="M37.5,3.4 C35,3.4 31.4,5.6 30.4,8 C29.8,10.2 32.4,10.9 33.8,10.9 L33.8,10.9 C38,10.9 41.4,6.2 39.5,4.2 C39.1,3.6 38.3,3.4 37.5,3.4" id="Shape" fill="#005288"></path>
                        <path d="M53.1,10.1 C53.7,7.7 51.2,5.8 47.9,5.8 C46.6,5.8 45.1,6.1 43.7,6.8 C40.2,8.8 40.3,11.4 42.1,12.9 C43.1,13.7 44.6,14.1 46.1,14.1 C49.1,14.1 52.4,12.5 53.1,10.1" id="Shape" fill="#005288"></path>
                        <path d="M59.8,9.7 C61.3,10.2 62.7,10.5 63.8,10.5 C65.7,10.5 66.8,9.7 66.1,8.1 C64.9,5.3 59.1,2.3 55.5,2.3 C54.2,2.3 53.3,2.7 52.9,3.6 C52.6,6 56.8,8.6 59.8,9.7" id="Shape" fill="#005288"></path>
                        <path d="M1.5,46.7 C1.1,46.7 0.8,46.9 0.7,47.4 C0.1,49.8 4.2,55.6 6.5,55.7 C7.9,55.4 6.4,52.1 5.8,50.9 C4.4,48.4 2.6,46.7 1.5,46.7" id="Shape" fill="#005288"></path>
                        <path d="M12,54 C10.6,54 9.4,54.5 9,55.6 C8.2,58.3 12.9,61.6 16.3,61.6 L16.9,61.6 C19.1,61.1 18.4,58.4 17.7,57.2 C16.6,55.1 14,54 12,54" id="Shape" fill="#005288"></path>
                    </g>
                    <g transform="translate(0.000000, 29.000000)" fill="#005288">
                        <path d="M15.4,22.8 C17.1,22.8 18.1,21.7 18.4,20.2 C18.9,16.5 14.9,11.9 11.5,11.9 C11.2,11.9 10.9,11.9 10.6,12 C7.2,12.9 7.7,18.6 12.4,21.8 C13.5,22.5 14.5,22.8 15.4,22.8" id="Shape"></path>
                        <path d="M4.9,15.3 C7.1,14.4 7.3,9.5 6.8,6.3 C6.3,3.2 4.9,0.8 3.5,0.8 C3.1,0.8 2.6,1.1 2.2,1.6 C-0.2,4.9 1.1,15.3 4.7,15.3 L4.9,15.3" id="Shape"></path>
                    </g>
                    <g transform="translate(22.000000, 11.000000)">
                        <path d="M49.5,45.4 L49.9,45.4 C52.8,44.7 53.2,38.3 51.2,35.6 C50.8,35.1 50.3,35 49.8,35 C48.6,35 47.5,36.2 47,37.1 C45,40.4 47,45.4 49.5,45.4" id="Shape" fill="#005288"></path>
                        <path d="M50.8,47.3 C49.8,47.3 48.1,49.6 47.5,50.5 C45.6,53.6 45.2,56.7 46.7,56.7 C46.8,56.7 46.9,56.7 47.1,56.6 C49.5,55.9 52.5,49.5 51.3,47.4 C51.1,47.4 50.9,47.3 50.8,47.3" id="Shape" fill="#005288"></path>
                        <path d="M42.4,42.9 C42,42.9 41.5,43 41.1,43.2 C37.3,44.7 35.4,51.5 38,54.1 C38.6,54.7 39.2,54.9 40,54.9 C42.4,54.9 45.3,52 45.6,47.6 C45.6,44.3 44.1,42.9 42.4,42.9" id="Shape" fill="#005288"></path>
                        <path d="M42.1,56.7 C40,56.7 36.9,58.4 35,60 C31.8,62.7 30.3,66 33.2,66.3 L33.6,66.3 C37.8,66.3 45.9,60 43.7,57.1 C43.3,56.9 42.7,56.7 42.1,56.7" id="Shape" fill="#005288"></path>
                        <path d="M16,2.6 C15.7,2.5 15.4,2.4 15.1,2.4 C13.7,2.4 12.1,3.5 11.1,5.2 C9.9,7.3 10.1,9.5 11.6,10.1 C11.9,10.2 12.2,10.3 12.5,10.3 C13.9,10.3 15.5,9.2 16.5,7.5 C17.7,5.4 17.5,3.2 16,2.6" id="Shape" fill="#0072BC"></path>
                        <path d="M9.5,0.2 C9.4,0.1 9.2,0.1 9,0.1 C8.2,0.1 7,1.1 6.1,2.5 C5.1,4.3 4.9,6.1 5.7,6.6 C5.8,6.7 6,6.7 6.2,6.7 C7.1,6.7 8.2,5.7 9.1,4.3 C10.1,2.5 10.3,0.7 9.5,0.2" id="Shape" fill="#0072BC"></path>
                        <path d="M4.5,41 L4.5,41 C2.1,41 0.3,42.3 0.5,43.9 C0.7,45.5 2.8,46.8 5.2,46.8 L5.2,46.8 C7.6,46.8 9.4,45.5 9.2,43.9 C9,42.3 6.9,41 4.5,41" id="Shape" fill="#0072BC"></path>
                        <path d="M5.5,49.1 L5.5,49.1 C3.4,49.1 1.8,49.9 1.8,50.8 C1.8,51.8 3.5,52.5 5.5,52.5 L5.6,52.5 C7.6,52.5 9.3,51.7 9.3,50.8 C9.2,49.9 7.5,49.1 5.5,49.1" id="Shape" fill="#0072BC"></path>
                        <path d="M40.9,28.7 C40.5,28.7 40.1,28.8 39.7,29.1 C38.4,30.1 38.4,32.6 39.5,34.6 C40.4,36.1 41.7,37 42.8,37 C43.2,37 43.6,36.9 44,36.6 C45.3,35.6 45.3,33.1 44.2,31.1 C43.3,29.6 42,28.7 40.9,28.7" id="Shape" fill="#0072BC"></path>
                        <path d="M49,28.1 C48.1,26.6 47,25.6 46.1,25.6 C45.9,25.6 45.8,25.6 45.7,25.7 C44.9,26.2 45,28 46,29.8 C46.9,31.3 48,32.3 48.9,32.3 C49.1,32.3 49.2,32.3 49.3,32.2 C50.2,31.7 50.1,29.9 49,28.1" id="Shape" fill="#0072BC"></path>
                        <path d="M16.5,25.9 C16.3,25.9 16.1,25.8 15.8,25.8 C15.4,25.8 15,25.9 15,26.1 C15.2,26.6 16.5,27.1 17.4,27.1 C17.7,27.1 17.9,27.1 18.1,27 C18.5,26.7 17.7,26.1 16.5,25.9" id="Shape" fill="#9DB5D2"></path>
                        <path d="M20.7,29.9 L20.5,29.9 C20.1,29.9 20,30.8 20.4,31.9 C20.5,32.2 20.9,33.1 21.3,33.1 L21.4,33.1 C21.9,32.4 21.4,30.3 20.7,29.9" id="Shape" fill="#9DB5D2"></path>
                        <path d="M24.1,24 L24.1,24 C23.2,24 21.8,25.4 21.8,26.2 C21.8,26.4 21.9,26.5 22.1,26.5 C22.5,26.5 23.1,26.1 23.6,25.5 C23.9,25.1 24.6,24.1 24.1,24" id="Shape" fill="#9DB5D2"></path>
<!-- here -->
                        <polygon id="Shape" fill="#0072BC" points="70.9 9.8 72.1 9.8 72.1 2.7 73.6 2.7 73.6 1.6 69.3 1.6 69.3 2.7 70.9 2.7"></polygon>
                        <polygon id="Shape" fill="#0072BC" points="78.8 6.2 82.2 6.2 82.2 9.8 83.3 9.8 83.3 1.6 82.2 1.6 82.2 5.1 78.8 5.1 78.8 1.6 77.6 1.6 77.6 9.8 78.8 9.8"></polygon>
                        <polygon id="Shape" fill="#0072BC" points="92 8.7 88.9 8.7 88.9 6.2 92 6.2 92 5.1 88.9 5.1 88.9 2.7 92 2.7 92 1.6 87.7 1.6 87.7 9.8 92 9.8"></polygon>
                        <rect id="Rectangle-path" fill="#0072BC" x="102.7" y="1.6" width="1.2" height="8.1"></rect>
                        <polygon id="Shape" fill="#0072BC" points="109.8 3.5 109.8 3.5 113.8 9.8 115 9.8 115 1.6 113.9 1.6 113.9 7.8 113.8 7.8 109.9 1.6 108.6 1.6 108.6 9.8 109.8 9.8"></polygon>
                        <path d="M121.5,8.8 C120.3,8.8 120.2,7.6 120.2,7.3 L119,7.3 C119,9.1 120.4,9.9 121.5,9.9 C123,9.9 124,8.9 124,7.4 C124,5.4 122.5,5.1 121.5,4.7 C121.1,4.6 120.4,4.4 120.4,3.6 C120.4,3.1 120.8,2.5 121.5,2.5 C122,2.5 122.6,2.8 122.6,3.7 L123.8,3.7 C123.8,2.3 122.8,1.4 121.5,1.4 C120,1.4 119.2,2.7 119.2,3.6 C119.2,4.2 119.4,4.8 119.7,5.1 C120.1,5.5 120.3,5.6 121.4,6 C122,6.2 122.7,6.4 122.7,7.3 C122.8,8.3 122.2,8.8 121.5,8.8" id="Shape" fill="#0072BC"></path>
                        <polygon id="Shape" fill="#0072BC" points="128.9 9.8 130.1 9.8 130.1 2.7 131.7 2.7 131.7 1.6 127.4 1.6 127.4 2.7 128.9 2.7"></polygon>
                        <rect id="Rectangle-path" fill="#0072BC" x="135.6" y="1.6" width="1.2" height="8.1"></rect>
                        <polygon id="Shape" fill="#0072BC" points="142.4 9.8 143.5 9.8 143.5 2.7 145.1 2.7 145.1 1.6 140.8 1.6 140.8 2.7 142.4 2.7"></polygon>
                        <path d="M151.8,9.9 C152.5,9.9 153.2,9.6 153.7,9.2 C154.2,8.7 154.5,8 154.5,7.1 L154.5,1.6 L153.3,1.6 L153.3,7.1 C153.3,8.6 152.2,8.8 151.8,8.8 C151.4,8.8 150.3,8.6 150.3,7.1 L150.3,1.6 L149.1,1.6 L149.1,7.1 C149.1,8 149.4,8.7 149.9,9.2 C150.4,9.6 151,9.9 151.8,9.9" id="Shape" fill="#0072BC"></path>
                        <polygon id="Shape" fill="#0072BC" points="160 9.8 161.2 9.8 161.2 2.7 162.7 2.7 162.7 1.6 158.4 1.6 158.4 2.7 160 2.7"></polygon>
                        <polygon id="Shape" fill="#0072BC" points="170.9 8.7 167.7 8.7 167.7 6.2 170.9 6.2 170.9 5.1 167.7 5.1 167.7 2.7 170.9 2.7 170.9 1.6 166.6 1.6 166.6 9.8 170.9 9.8"></polygon>
                        <polygon id="Shape" fill="#0072BC" points="182.7 6.3 185.6 6.3 185.6 5.2 182.7 5.2 182.7 2.7 185.6 2.7 185.6 1.6 181.5 1.6 181.5 9.8 182.7 9.8"></polygon>
                        <path d="M193.7,9.9 C196.1,9.9 197.9,7.9 197.9,5.7 C197.9,3.4 196.1,1.5 193.7,1.5 C191.2,1.5 189.5,3.5 189.5,5.7 C189.5,7.9 191.3,9.9 193.7,9.9 M193.7,2.6 C195.7,2.6 196.7,4.3 196.7,5.8 C196.7,7.1 195.8,8.9 193.7,8.9 C191.6,8.9 190.7,7.1 190.7,5.8 C190.7,4.4 191.6,2.6 193.7,2.6" id="Shape" fill="#0072BC"></path>
                        <path d="M203.2,6 L203.2,6 L205.9,9.8 L207.4,9.8 L205.1,6.8 C205.6,6.8 207.4,6.5 207.4,4.3 C207.4,3.6 207.2,2.9 206.7,2.4 C206.3,2 205.7,1.7 204.5,1.7 L202,1.7 L202,9.8 L203.2,9.8 L203.2,6 Z M203.2,2.7 L204.5,2.7 C205.8,2.7 206.3,3.5 206.3,4.2 C206.3,5.8 204.5,5.8 204.1,5.8 L203.3,5.8 L203.3,2.7 L203.2,2.7 Z" id="Shape" fill="#0072BC"></path>
                        <path d="M70.5,20 L70.5,29.8 C70.5,31.8 70.2,32.1 68.7,32.2 L68.7,32.7 L74.8,32.7 L74.8,32.2 C72.9,32.2 72.6,31.7 72.6,30.3 L72.6,24.8 L77.2,24.8 C78.4,24.8 78.9,25.3 79,26.7 L79.4,26.7 L79.4,22.3 L79,22.3 C78.9,23.4 78.5,23.9 77.6,23.9 L72.7,23.9 L72.7,18 L77.4,18 C78.9,18 79.4,18.6 79.5,20 L79.9,20 L79.9,17.1 L68.6,17.1 L68.6,17.6 C70.4,17.7 70.5,18.4 70.5,20" id="Shape" fill="#0072BC"></path>
                        <path d="M97,20.6 L97,26.4 C97,30.6 94.1,31.8 91.3,31.8 C87.6,31.8 85.6,29.8 85.6,26.4 L85.6,19.5 C85.6,18.1 86.2,17.7 87.6,17.7 L87.8,17.7 L87.8,17.2 L81.4,17.2 L81.4,17.7 C83.1,17.7 83.5,18 83.5,19.6 L83.5,26.9 C83.5,30.5 85.9,33.2 90.7,33.2 C96.1,33.2 98.1,29.9 98.1,26.8 L98.1,20 C98.1,18.4 98.7,17.7 100.4,17.7 L100.4,17.2 L94.5,17.2 L94.5,17.7 C96.6,17.8 97,18.2 97,20.6" id="Shape" fill="#0072BC"></path>
                        <path d="M107.2,32.3 C105.1,32.3 104.7,31.9 104.7,30.1 L104.7,19.4 L117.6,32.9 L118.2,32.9 L118.2,19 C118.2,18 118.6,17.7 120.5,17.7 L120.5,17.2 L114.7,17.2 L114.7,17.7 C116.7,17.7 117.1,18 117.1,19.5 L117.1,29.4 L105.3,17.1 L101.4,17.1 L101.4,17.6 C102.3,17.6 102.9,17.8 103.5,18.2 L103.5,30.5 C103.5,31.6 103,32.2 101.5,32.2 L101.4,32.2 L101.4,32.7 L107.2,32.7 L107.2,32.3 Z" id="Shape" fill="#0072BC"></path>
                        <path d="M135.2,32.5 C135.8,31.5 136.5,30 136.8,28.9 L136.3,28.9 C134.6,31.9 132.2,32.6 130.2,32.6 C126.4,32.6 123.2,29.3 123.2,24.8 C123.2,20.6 125.8,17.6 130,17.6 C132.7,17.6 134.9,19.1 135.7,21.4 L136.2,21.4 L136,17.8 L135.6,17.8 C135.6,17.9 135.4,18 135.2,18 C134.4,18 133.1,17 129.9,17 C124.7,17 120.9,20.5 120.9,25.3 C120.9,29.9 124.5,33.3 129.6,33.3 C132.5,33.1 133.6,32.2 135.2,32.5" id="Shape" fill="#0072BC"></path>
                        <path d="M147.1,30.4 L147.1,18.1 L151.4,18.1 C152.4,18.1 152.8,18.7 153.2,20.9 L153.6,20.9 L153.2,16.9 L152.7,16.9 C152.7,17.2 152.3,17.3 151.9,17.3 L139.9,17.3 C139.7,17.3 139.6,17.3 139.4,17.2 C139.3,17.1 139.2,17 139.1,16.9 L138.6,16.9 L138.2,20.9 L138.6,20.9 C139,18.7 139.4,18.1 140.4,18.1 L144.7,18.1 L144.7,30.4 C144.7,31.7 144.2,32.2 142.7,32.2 L141.8,32.2 L141.8,32.7 L149.7,32.7 L149.7,32.2 L148.8,32.2 C147.5,32.3 147.1,31.8 147.1,30.4" id="Shape" fill="#0072BC"></path>
                        <path d="M161.7,32.3 C160,32.3 159.6,31.8 159.6,30.3 L159.6,19.7 C159.6,18 160.1,17.7 161.7,17.7 L161.7,17.2 L155.6,17.2 L155.6,17.7 C157,17.8 157.5,18.1 157.5,19.5 L157.5,30.1 C157.5,31.8 157.2,32.2 155.6,32.2 L155.6,32.7 L161.7,32.7 L161.7,32.3 Z" id="Shape" fill="#0072BC"></path>
                        <path d="M172.5,33.1 C177.3,33.1 181.4,29.6 181.4,24.5 C181.4,20 177.4,16.8 172.6,16.8 C167.3,16.8 163.5,20.3 163.5,25.3 C163.5,30 167.6,33.1 172.5,33.1 M172,17.4 C176.1,17.4 179.1,20.7 179.1,25.3 C179.1,28.8 177.2,32.4 173.1,32.4 C169.1,32.4 165.9,29.1 165.9,24.4 C165.9,21.5 167.6,17.4 172,17.4" id="Shape" fill="#0072BC"></path>
                        <path d="M201.6,17.2 L195.8,17.2 L195.8,17.7 C197.8,17.7 198.2,18 198.2,19.5 L198.2,29.4 L186.4,17.1 L182.5,17.1 L182.5,17.6 C183.4,17.6 184,17.8 184.6,18.2 L184.6,30.5 C184.6,31.6 184.1,32.2 182.6,32.2 L182.5,32.2 L182.5,32.7 L188.3,32.7 L188.3,32.2 C186.2,32.2 185.8,31.8 185.8,30 L185.8,19.4 L198.7,32.9 L199.4,32.9 L199.4,19 C199.4,18 199.8,17.7 201.7,17.7 L201.7,17.2 L201.6,17.2 Z" id="Shape" fill="#0072BC"></path>
                        <path d="M215.6,30.7 L210.4,16.8 L208.2,16.8 L208.4,17.3 L203.9,29.7 C203.1,31.9 202.8,32.1 201.2,32.2 L201.2,32.7 L207,32.7 L207,32.2 L206.6,32.2 C205.2,32.2 204.6,31.9 204.6,31.3 C204.6,30.9 204.9,30.2 205.1,29.7 L206.5,25.8 L211.7,25.8 L213.4,30.3 C213.5,30.5 213.7,30.9 213.7,31.3 C213.7,32 213.2,32.1 211.8,32.1 L211,32.1 L211,32.6 L217.9,32.6 L217.9,32.1 C216.6,32.3 216.1,32 215.6,30.7 L215.6,30.7 Z M206.9,24.7 L209,18.9 L211.2,24.7 L206.9,24.7 Z" id="Shape" fill="#0072BC"></path>
                        <path d="M231.1,29.1 C229.5,31.3 229.1,31.8 227.6,31.8 L223.9,31.8 C223.2,31.8 222.9,31.6 222.9,30.9 L222.9,19.4 C222.9,17.9 223.3,17.7 224.9,17.7 L225.8,17.7 L225.8,17.2 L218.4,17.2 L218.4,17.7 L218.8,17.7 C220.4,17.7 220.8,18.2 220.8,19.6 L220.8,30.7 C220.8,32 220.4,32.3 219.2,32.3 L218.4,32.3 L218.4,32.8 L229.6,32.8 L231.5,29.2 L231.1,29.2 L231.1,29.1 Z" id="Shape" fill="#0072BC"></path>
                        <path d="M87.7,52.9 L86.9,41.6 C86.8,40.7 87.3,40.7 88.5,40.6 L88.5,40.1 L84.8,40.1 L78.8,52.7 L72.8,40.1 L69,40.1 L69,40.6 C70.5,40.7 70.6,41.1 70.5,42.8 L70,52.6 C69.9,54.9 69.7,55.3 67.8,55.3 L67.8,55.8 L73,55.8 L73,55.3 C71.9,55.3 70.9,55 71,53.7 L71.7,42.5 L71.8,42.5 L78.2,55.8 L78.8,55.8 L85,42.5 L85.1,42.5 L85.8,53.7 C85.9,55 84.8,55.3 83.6,55.3 L83.6,55.8 L90,55.8 L90,55.3 C88.1,55.2 87.9,55.2 87.7,52.9" id="Shape" fill="#0072BC"></path>
                        <path d="M100.8,54.8 L97,54.8 C96.1,54.8 95.7,54.6 95.7,53.4 L95.7,48.1 L99.9,48.1 C100.9,48.1 101.4,48.3 101.6,50.1 L102.1,50.1 L102.1,45.4 L101.6,45.4 C101.5,46.8 101.1,47.3 100.2,47.3 L95.7,47.3 L95.7,41.2 L101,41.2 C101.9,41.2 102.5,41.6 102.8,43.8 L103.2,43.8 L103,40.3 L91,40.3 L91,40.8 L91.6,40.8 C93.3,40.8 93.6,41.4 93.6,42.8 L93.6,53.3 C93.6,54.8 93.3,55.4 91.3,55.4 L90.6,55.4 L90.6,55.9 L103.9,55.9 L104.3,52.2 L103.9,52.2 C103.1,54.1 102.6,54.8 100.8,54.8" id="Shape" fill="#0072BC"></path>
                        <path d="M113.3,39.9 C112,39.9 110.5,39.9 109.1,40 C107.7,40 106.5,40.1 105.6,40.1 L105.6,40.6 L106.1,40.6 C107.6,40.6 108,41 108,42.6 L108,53.3 C108,54.7 107.4,55.1 106,55.1 L105.6,55.1 L105.6,55.6 L113.6,55.6 C119.9,55.6 122.8,51.1 122.8,47.3 C122.9,43.3 119.9,39.9 113.3,39.9 M118.4,53.2 C116.9,54.7 115.5,55.2 112.1,55.2 C110.1,55.2 110.1,54.8 110.1,53.8 L110.1,40.5 C110.4,40.5 111.1,40.4 112.1,40.4 C115.6,40.4 117.4,41.3 118.5,42.4 C120,43.9 120.5,45.9 120.5,47.8 C120.5,50.4 119.4,52.3 118.4,53.2" id="Shape" fill="#0072BC"></path>
                        <path d="M124.7,40.6 C126.1,40.7 126.6,41 126.6,42.4 L126.6,53 C126.6,54.7 126.3,55.1 124.7,55.1 L124.7,55.6 L130.8,55.6 L130.8,55.1 C129.1,55.1 128.7,54.6 128.7,53.1 L128.7,42.7 C128.7,41 129.3,40.7 130.8,40.7 L130.8,40.2 L124.7,40.2 L124.7,40.6 Z" id="Shape" fill="#0072BC"></path>
                        <path d="M142,55.5 C138.2,55.5 135,52.2 135,47.7 C135,43.5 137.6,40.5 141.8,40.5 C144.5,40.5 146.7,42 147.5,44.3 L148,44.3 L147.8,40.7 L147.4,40.7 C147.3,40.8 147.2,40.8 147,40.8 C146.2,40.8 144.9,39.8 141.7,39.8 C136.5,39.8 132.7,43.3 132.7,48.1 C132.7,52.7 136.3,56.1 141.4,56.1 C144.3,56.1 145.4,55.2 147,55.4 C147.6,54.4 148.3,52.9 148.6,51.8 L148.1,51.8 C146.4,54.8 144,55.5 142,55.5" id="Shape" fill="#0072BC"></path>
                        <path d="M150.6,40.6 C152,40.7 152.5,41 152.5,42.4 L152.5,53 C152.5,54.7 152.2,55.1 150.6,55.1 L150.6,55.6 L156.7,55.6 L156.7,55.1 C155,55.1 154.6,54.6 154.6,53.1 L154.6,42.7 C154.6,41 155.2,40.7 156.7,40.7 L156.7,40.2 L150.6,40.2 L150.6,40.6 Z" id="Shape" fill="#0072BC"></path>
                        <path d="M172,40.6 C174,40.7 174.4,40.9 174.4,42.4 L174.4,52.3 L162.6,40 L158.7,40 L158.7,40.5 C159.6,40.5 160.2,40.7 160.8,41.1 L160.8,53.4 C160.8,54.5 160.3,55.1 158.8,55.1 L158.7,55.1 L158.7,55.6 L164.5,55.6 L164.5,55.1 C162.4,55.1 162,54.7 162,52.9 L162,42.3 L174.9,55.8 L175.5,55.8 L175.5,41.9 C175.5,40.9 175.9,40.6 177.8,40.6 L177.8,40.1 L172,40.1 L172,40.6 Z" id="Shape" fill="#0072BC"></path>
                        <path d="M188.4,54.8 L184.6,54.8 C183.7,54.8 183.2,54.6 183.2,53.4 L183.2,48.1 L187.4,48.1 C188.4,48.1 188.9,48.3 189.1,50.1 L189.6,50.1 L189.6,45.4 L189.1,45.4 C189,46.8 188.6,47.3 187.7,47.3 L183.2,47.3 L183.2,41.2 L188.5,41.2 C189.4,41.2 190,41.6 190.3,43.8 L190.7,43.8 L190.5,40.3 L178.5,40.3 L178.5,40.8 L179,40.8 C180.7,40.8 181,41.4 181,42.8 L181,53.3 C181,54.8 180.6,55.4 178.7,55.4 L178,55.4 L178,55.9 L191.3,55.9 L191.7,52.2 L191.3,52.2 C190.7,54.1 190.1,54.8 188.4,54.8" id="Shape" fill="#0072BC"></path>
                        <path d="M201.2,43.7 C201.2,45.8 199.5,47.4 197.5,47.4 C195.4,47.4 193.8,45.7 193.8,43.7 C193.8,41.6 195.5,40 197.5,40 C199.6,40 201.2,41.7 201.2,43.7 L201.2,43.7 Z M194.1,43.7 C194.1,45.6 195.6,47.1 197.5,47.1 C199.4,47.1 200.9,45.6 200.9,43.7 C200.9,41.8 199.4,40.3 197.5,40.3 C195.6,40.3 194.1,41.8 194.1,43.7 L194.1,43.7 Z M197.5,41.4 C198.4,41.4 199.1,41.9 199.1,42.6 C199.1,43.2 198.7,43.6 197.9,43.8 L199,45.4 C199.2,45.7 199.4,45.8 199.6,45.9 L199.6,46 L198.6,46 L197.1,43.9 L196.7,43.9 L196.7,45.4 C196.7,45.7 196.8,45.8 197.3,45.8 L197.3,46 L195.4,46 L195.4,45.8 C195.8,45.8 196,45.6 196,45.3 L196,42 C196,41.7 195.9,41.5 195.5,41.5 L195.5,41.3 L197.5,41.3 L197.5,41.4 Z M196.9,43.6 C197.6,43.6 198.2,43.3 198.2,42.6 C198.2,42 197.7,41.6 197.1,41.6 C197,41.6 196.9,41.6 196.7,41.7 L196.7,43.6 L196.9,43.6 Z" id="Shape" fill="#0072BC"></path>
                    </g>
                </g>
            </g>
        </g>
    </g>
</svg>