<?xml version="1.0" encoding="UTF-8"?>
<svg xmlns="http://www.w3.org/2000/svg" version="1.1" viewBox="0 0 272 72">
  <defs>
    <style>
      .cls-1 {
        fill: #1b75bb;
      }
    </style>
  </defs>
  <!-- Generator: Adobe Illustrator 28.7.0, SVG Export Plug-In . SVG Version: 1.2.0 Build 136)  -->
  <g>
    <g id="Layer_1">
      <g>
        <polygon class="cls-1" points="250.5 58.4 250.5 52.9 68.2 52.9 60.7 58.4 250.5 58.4"/>
        <path class="cls-1" d="M250.5,52.9v5.5H60.7l7.5-5.5h182.4Z"/>
      </g>
      <g>
        <path class="cls-1" d="M69.9,7h0c-.4-.4-.8-.8-1.2-1.1-.2-.1-.3-.2-.4-.3-.2-.1-.3-.2-.4-.3-.2-.1-.4-.3-.5-.4-.2-.1-.4-.3-.6-.4-.2-.2-.5-.3-.7-.4-.3-.2-.5-.3-.7-.4h0c-.2,0-.3-.2-.5-.3,0,0-.1,0-.2,0l-.4-.2c-.2,0-.4-.2-.6-.3h0s0,0-.1,0c-.3-.1-.5-.2-.7-.3-.2,0-.5-.2-.7-.2-.2,0-.4-.1-.6-.2h-.1c-1.6-.5-3.3-.7-5-.7s-2.8,1.2-2.8,2.8.8,2.3,1.9,2.6h.1c.2,0,.3,0,.5,0,1.3,0,2.5.2,3.7.5.1,0,.3,0,.5.1,6,1.7,10.1,7.3,10.1,13.5s-1.1,6.3-3.1,8.8h-.1c0,.1-.9.9-.9.9-.6.6-1.3,1.2-2,1.7-2.4,1.7-5.2,2.6-8.1,2.6-5.5,0-10.3-3-12.7-7.9-.3-.7-.9-1.2-1.6-1.4-.7-.2-1.4-.2-2.1.1-1.4.7-1.9,2.3-1.3,3.7,2.8,5.7,8.1,9.7,14.3,10.7l1.9.3-15.3,13.3L11.6,29.7c-2-2.5-3.1-5.6-3.1-8.8,0-7.7,6.3-14,14-14s5.3.7,7.5,2.2l24.7,15c1.3.8,3,.4,3.8-.9.8-1.3.4-3-.9-3.8l-24.6-14.9c-3.1-2-6.7-3-10.5-3C11.8,1.4,3,10.2,3,20.9s1.6,9,4.5,12.5v.2c.1,0,31.8,27.4,31.8,27.4l30.6-26.5c3.6-3.7,5.6-8.5,5.6-13.7,0-5.2-2.1-10.1-5.8-13.8Z"/>
        <path class="cls-1" d="M70,34.6l-30.6,26.5L7.7,33.6v-.2c-3.1-3.5-4.7-7.9-4.7-12.5C3,10.2,11.8,1.4,22.6,1.4s7.4,1,10.5,3l24.6,14.9c1.3.8,1.7,2.5.9,3.8-.8,1.3-2.5,1.7-3.8.9l-24.7-15c-2.2-1.4-4.8-2.2-7.5-2.2-7.7,0-14,6.3-14,14s1.1,6.3,3.1,8.8l27.8,24.1,15.3-13.3-1.9-.3c-6.2-1.1-11.6-5.1-14.3-10.7-.7-1.4,0-3,1.3-3.7.7-.3,1.4-.4,2.1-.1.7.2,1.3.7,1.6,1.4,2.4,4.9,7.2,7.9,12.7,7.9,2.9,0,5.7-.9,8.1-2.6.7-.5,1.4-1.1,2-1.7l.9-.8h.1c2-2.6,3.1-5.7,3.1-8.9,0-6.2-4.2-11.8-10.1-13.5-.2,0-.3-.1-.5-.1-1.2-.3-2.4-.5-3.7-.5s-.4,0-.5,0h-.1c-1.2-.4-1.9-1.5-1.9-2.7s1.2-2.8,2.8-2.8,3.4.2,5,.7h.1c.2,0,.4.1.6.2.3,0,.5.2.7.2.2,0,.5.2.7.3,0,0,0,0,.1,0h0c.2,0,.4.2.6.3l.4.2s0,0,.2,0c.2,0,.3.2.5.3h0c.2.1.5.3.7.4.2.1.5.3.7.4.2.1.4.3.6.4.2.1.3.2.5.4.1,0,.3.2.4.3.1,0,.3.2.4.3.4.3.8.7,1.2,1.1h0c3.7,3.7,5.8,8.6,5.8,13.8,0,5.2-2,10.1-5.6,13.7Z"/>
      </g>
      <g>
        <path class="cls-1" d="M122.7,47.5V12.8l-14.2,34.7h-2.1l-14.1-34.7v34.7h-5.2V5.7h7.4l13,31.8,13-31.8h7.4v41.7h-5.2Z"/>
        <path class="cls-1" d="M167.6,47.5l-3.7-9.3h-21.2l-3.7,9.3h-5.8l16.8-41.7h6.4l16.8,41.7h-5.8ZM153.3,10.4l-9.1,23.2h18.1l-9-23.2Z"/>
        <path class="cls-1" d="M178.8,47.5V5.7h16.8c8.4,0,13.1,5.8,13.1,12.6s-4.8,12.6-13.1,12.6h-11.6v16.6h-5.2ZM194.9,10.4h-11v15.9h11c4.9,0,8.3-3.3,8.3-7.9s-3.4-7.9-8.3-7.9Z"/>
        <path class="cls-1" d="M216.1,37.7c2.8,3.1,7.3,5.9,13.1,5.9s9.8-4,9.8-7.2c0-5-5.1-6.4-10.6-7.9-6.7-1.8-14.1-3.6-14.1-11.8s6.1-11.6,14.3-11.6,11.3,2.1,14.8,5.8l-3.1,3.8c-3.1-3.4-7.5-5-12.1-5s-8.6,2.7-8.6,6.6,4.8,5.4,10.1,6.9c6.8,1.8,14.6,3.9,14.6,12.7s-4.1,12.3-15.4,12.3-12.6-2.8-16-6.6l3.1-3.9Z"/>
      </g>
      <path class="cls-1" d="M67.8,68.8v-5.2l-2,5.2h-.3l-2-5.2v5.2h-.7v-6.2h1.1l1.9,4.7,1.9-4.7h1.1v6.2h-.7Z"/>
      <path class="cls-1" d="M71.8,64.2c1.3,0,2.1,1.1,2.1,2.4v.2h-3.5c0,.8.6,1.6,1.6,1.6s1-.2,1.3-.6l.3.5c-.4.4-1,.7-1.7.7-1.3,0-2.2-1-2.2-2.4s.9-2.4,2.1-2.4ZM70.3,66.3h2.8c0-.7-.4-1.5-1.4-1.5s-1.4.8-1.4,1.5Z"/>
      <path class="cls-1" d="M78.1,68.8v-.7c-.3.5-.8.8-1.5.8-1.1,0-1.9-.9-1.9-2.4s.8-2.4,1.9-2.4,1.1.3,1.5.8v-2.4h.7v6.2h-.7ZM78.1,65.5c-.2-.4-.8-.7-1.3-.7-.9,0-1.4.7-1.4,1.7s.5,1.7,1.4,1.7,1.1-.3,1.3-.7v-2Z"/>
      <path class="cls-1" d="M79.9,63.1c0-.3.2-.5.4-.5s.5.2.5.5-.2.5-.5.5-.4-.2-.4-.5ZM80.1,68.8v-4.5h.7v4.5h-.7Z"/>
      <path class="cls-1" d="M84,64.2c.8,0,1.3.3,1.6.8l-.4.4c-.3-.4-.7-.6-1.1-.6-.9,0-1.5.7-1.5,1.7s.6,1.7,1.5,1.7.8-.2,1.1-.6l.4.4c-.3.4-.8.8-1.6.8-1.3,0-2.2-1-2.2-2.4s.9-2.4,2.2-2.4Z"/>
      <path class="cls-1" d="M89.2,68.8v-.5c-.4.4-.8.6-1.4.6s-1.5-.5-1.5-1.5.8-1.5,1.5-1.5,1.1.2,1.4.6v-.8c0-.6-.5-1-1.1-1s-.9.2-1.3.6l-.3-.5c.5-.5,1-.7,1.7-.7s1.7.4,1.7,1.5v3.1h-.7ZM89.2,67c-.3-.4-.7-.6-1.2-.6s-1.1.4-1.1,1,.4,1,1.1,1,.9-.2,1.2-.6v-.8Z"/>
      <path class="cls-1" d="M91.2,68.8v-6.2h.7v6.2h-.7Z"/>
      <path class="cls-1" d="M99.8,68.8l-.5-1.4h-3l-.5,1.4h-.8l2.4-6.2h.9l2.4,6.2h-.8ZM97.8,63.3l-1.3,3.5h2.6l-1.3-3.5Z"/>
      <path class="cls-1" d="M103.3,64.2c.8,0,1.3.3,1.6.8l-.4.4c-.3-.4-.7-.6-1.1-.6-.9,0-1.5.7-1.5,1.7s.6,1.7,1.5,1.7.8-.2,1.1-.6l.4.4c-.3.4-.8.8-1.6.8-1.3,0-2.2-1-2.2-2.4s.9-2.4,2.2-2.4Z"/>
      <path class="cls-1" d="M108.5,68.8v-.5c-.4.4-.8.6-1.4.6s-1.5-.5-1.5-1.5.8-1.5,1.5-1.5,1.1.2,1.4.6v-.8c0-.6-.5-1-1.1-1s-.9.2-1.3.6l-.3-.5c.5-.5,1-.7,1.7-.7s1.7.4,1.7,1.5v3.1h-.7ZM108.5,67c-.3-.4-.7-.6-1.2-.6s-1.1.4-1.1,1,.4,1,1.1,1,.9-.2,1.2-.6v-.8Z"/>
      <path class="cls-1" d="M113.7,68.8v-.7c-.3.5-.8.8-1.5.8-1.1,0-1.9-.9-1.9-2.4s.8-2.4,1.9-2.4,1.1.3,1.5.8v-2.4h.7v6.2h-.7ZM113.7,65.5c-.2-.4-.8-.7-1.3-.7-.9,0-1.4.7-1.4,1.7s.5,1.7,1.4,1.7,1.1-.3,1.3-.7v-2Z"/>
      <path class="cls-1" d="M117.6,64.2c1.3,0,2.1,1.1,2.1,2.4v.2h-3.5c0,.8.6,1.6,1.6,1.6s1-.2,1.3-.6l.3.5c-.4.4-1,.7-1.7.7-1.3,0-2.2-1-2.2-2.4s.9-2.4,2.1-2.4ZM116.1,66.3h2.8c0-.7-.4-1.5-1.4-1.5s-1.4.8-1.4,1.5Z"/>
      <path class="cls-1" d="M125.9,68.8v-3.1c0-.6-.2-.9-.8-.9s-.9.3-1.1.7v3.3h-.7v-3.1c0-.6-.2-.9-.8-.9s-.9.3-1.1.7v3.3h-.7v-4.5h.7v.7c.2-.3.8-.8,1.4-.8s1,.4,1.2.8c.2-.4.8-.8,1.4-.8s1.2.5,1.2,1.4v3.3h-.7Z"/>
      <path class="cls-1" d="M127.8,69.9c0,0,.3,0,.4,0,.3,0,.5-.1.6-.5l.3-.7-1.8-4.5h.7l1.4,3.7,1.4-3.7h.7l-2.2,5.4c-.3.7-.7.9-1.3.9-.1,0-.4,0-.5,0v-.6Z"/>
      <path class="cls-1" d="M134.4,66.5c0-1.3.8-2.4,2.1-2.4s2.1,1.1,2.1,2.4-.8,2.4-2.1,2.4-2.1-1.1-2.1-2.4ZM137.9,66.5c0-.9-.5-1.7-1.4-1.7s-1.4.8-1.4,1.7.5,1.7,1.4,1.7,1.4-.8,1.4-1.7Z"/>
      <path class="cls-1" d="M140.6,64.9v3.9h-.7v-3.9h-.7v-.6h.7v-.3c0-.9.5-1.5,1.3-1.5s.5,0,.7.2l-.2.5c-.1,0-.2-.1-.4-.1-.4,0-.7.3-.7.9v.3h.9v.6h-.9Z"/>
      <path class="cls-1" d="M144.6,68.8v-6.2h2.4c1.2,0,1.9.9,1.9,1.9s-.7,1.9-1.9,1.9h-1.7v2.5h-.7ZM146.9,63.3h-1.6v2.4h1.6c.7,0,1.2-.5,1.2-1.2s-.5-1.2-1.2-1.2Z"/>
      <path class="cls-1" d="M151.6,64.2c1.3,0,2.1,1.1,2.1,2.4v.2h-3.5c0,.8.6,1.6,1.6,1.6s1-.2,1.3-.6l.3.5c-.4.4-1,.7-1.7.7-1.3,0-2.2-1-2.2-2.4s.9-2.4,2.1-2.4ZM150.2,66.3h2.8c0-.7-.4-1.5-1.4-1.5s-1.4.8-1.4,1.5Z"/>
      <path class="cls-1" d="M157.9,68.8v-.7c-.3.5-.8.8-1.5.8-1.1,0-1.9-.9-1.9-2.4s.8-2.4,1.9-2.4,1.1.3,1.5.8v-2.4h.7v6.2h-.7ZM157.9,65.5c-.2-.4-.8-.7-1.3-.7-.9,0-1.4.7-1.4,1.7s.5,1.7,1.4,1.7,1.1-.3,1.3-.7v-2Z"/>
      <path class="cls-1" d="M159.8,63.1c0-.3.2-.5.4-.5s.5.2.5.5-.2.5-.5.5-.4-.2-.4-.5ZM159.9,68.8v-4.5h.7v4.5h-.7Z"/>
      <path class="cls-1" d="M164.6,68.8v-.5c-.4.4-.8.6-1.4.6s-1.5-.5-1.5-1.5.8-1.5,1.5-1.5,1.1.2,1.4.6v-.8c0-.6-.5-1-1.1-1s-.9.2-1.3.6l-.3-.5c.5-.5,1-.7,1.7-.7s1.7.4,1.7,1.5v3.1h-.7ZM164.6,67c-.3-.4-.7-.6-1.2-.6s-1.1.4-1.1,1,.4,1,1.1,1,.9-.2,1.2-.6v-.8Z"/>
      <path class="cls-1" d="M166.7,67.9v-2.9h-.7v-.6h.7v-1.2h.7v1.2h.9v.6h-.9v2.8c0,.3.1.6.4.6s.4,0,.5-.2l.2.5c-.2.2-.4.3-.8.3-.6,0-1-.4-1-1.1Z"/>
      <path class="cls-1" d="M169.2,68.8v-4.5h.7v.7c.3-.5.8-.8,1.4-.8v.7c0,0-.2,0-.3,0-.4,0-1,.4-1.2.7v3.2h-.7Z"/>
      <path class="cls-1" d="M172.1,63.1c0-.3.2-.5.4-.5s.5.2.5.5-.2.5-.5.5-.4-.2-.4-.5ZM172.2,68.8v-4.5h.7v4.5h-.7Z"/>
      <path class="cls-1" d="M176.1,64.2c.8,0,1.3.3,1.6.8l-.4.4c-.3-.4-.7-.6-1.1-.6-.9,0-1.5.7-1.5,1.7s.6,1.7,1.5,1.7.8-.2,1.1-.6l.4.4c-.3.4-.8.8-1.6.8-1.3,0-2.2-1-2.2-2.4s.9-2.4,2.2-2.4Z"/>
      <path class="cls-1" d="M195.3,67.3c.4.5,1,.9,1.9.9s1.4-.6,1.4-1.1c0-.7-.7-1-1.5-1.2-1-.3-2-.5-2-1.8s.9-1.7,2-1.7,1.6.3,2.1.9l-.4.6c-.4-.5-1.1-.7-1.7-.7s-1.2.4-1.2,1,.7.8,1.4,1c1,.3,2.1.6,2.1,1.9s-.6,1.8-2.2,1.8-1.8-.4-2.3-1l.4-.6Z"/>
      <path class="cls-1" d="M201.1,70.5h-.7v-6.2h.7v.7c.3-.5.8-.8,1.5-.8,1.1,0,1.9.9,1.9,2.4s-.8,2.4-1.9,2.4-1.1-.3-1.5-.8v2.4ZM202.4,64.8c-.5,0-1.1.3-1.3.7v2c.2.4.8.7,1.3.7.9,0,1.4-.7,1.4-1.7s-.5-1.7-1.4-1.7Z"/>
      <path class="cls-1" d="M207.5,64.2c1.3,0,2.1,1.1,2.1,2.4v.2h-3.5c0,.8.6,1.6,1.6,1.6s1-.2,1.3-.6l.3.5c-.4.4-1,.7-1.7.7-1.3,0-2.2-1-2.2-2.4s.9-2.4,2.1-2.4ZM206.1,66.3h2.8c0-.7-.4-1.5-1.4-1.5s-1.4.8-1.4,1.5Z"/>
      <path class="cls-1" d="M212.5,64.2c.8,0,1.3.3,1.6.8l-.4.4c-.3-.4-.7-.6-1.1-.6-.9,0-1.5.7-1.5,1.7s.6,1.7,1.5,1.7.8-.2,1.1-.6l.4.4c-.3.4-.8.8-1.6.8-1.3,0-2.2-1-2.2-2.4s.9-2.4,2.2-2.4Z"/>
      <path class="cls-1" d="M214.9,63.1c0-.3.2-.5.4-.5s.5.2.5.5-.2.5-.5.5-.4-.2-.4-.5ZM215.1,68.8v-4.5h.7v4.5h-.7Z"/>
      <path class="cls-1" d="M219.8,68.8v-.5c-.4.4-.8.6-1.4.6s-1.5-.5-1.5-1.5.8-1.5,1.5-1.5,1.1.2,1.4.6v-.8c0-.6-.5-1-1.1-1s-.9.2-1.3.6l-.3-.5c.5-.5,1-.7,1.7-.7s1.7.4,1.7,1.5v3.1h-.7ZM219.8,67c-.3-.4-.7-.6-1.2-.6s-1.1.4-1.1,1,.4,1,1.1,1,.9-.2,1.2-.6v-.8Z"/>
      <path class="cls-1" d="M221.8,68.8v-6.2h.7v6.2h-.7Z"/>
      <path class="cls-1" d="M230.3,68.8l-3.5-5v5h-.7v-6.2h.8l3.4,4.9v-4.9h.7v6.2h-.7Z"/>
      <path class="cls-1" d="M234.3,64.2c1.3,0,2.1,1.1,2.1,2.4v.2h-3.5c0,.8.6,1.6,1.6,1.6s1-.2,1.3-.6l.3.5c-.4.4-1,.7-1.7.7-1.3,0-2.2-1-2.2-2.4s.9-2.4,2.1-2.4ZM232.9,66.3h2.8c0-.7-.4-1.5-1.4-1.5s-1.4.8-1.4,1.5Z"/>
      <path class="cls-1" d="M239.3,64.2c1.3,0,2.1,1.1,2.1,2.4v.2h-3.5c0,.8.6,1.6,1.6,1.6s1-.2,1.3-.6l.3.5c-.4.4-1,.7-1.7.7-1.3,0-2.2-1-2.2-2.4s.9-2.4,2.1-2.4ZM237.9,66.3h2.8c0-.7-.4-1.5-1.4-1.5s-1.4.8-1.4,1.5Z"/>
      <path class="cls-1" d="M245.6,68.8v-.7c-.3.5-.8.8-1.5.8-1.1,0-1.9-.9-1.9-2.4s.8-2.4,1.9-2.4,1.1.3,1.5.8v-2.4h.7v6.2h-.7ZM245.6,65.5c-.2-.4-.8-.7-1.3-.7-.9,0-1.4.7-1.4,1.7s.5,1.7,1.4,1.7,1.1-.3,1.3-.7v-2Z"/>
      <path class="cls-1" d="M247.6,67.7c.3.3.8.6,1.4.6s1-.3,1-.7-.5-.7-1.1-.8c-.7-.2-1.6-.4-1.6-1.3s.6-1.3,1.6-1.3,1.3.3,1.6.7l-.3.5c-.3-.3-.7-.6-1.3-.6s-1,.3-1,.7.5.6,1.1.7c.8.2,1.6.4,1.6,1.4s-.6,1.4-1.7,1.4-1.3-.2-1.7-.7l.3-.5Z"/>
      <path class="cls-1" d="M178.9,67.7c.3.3.8.6,1.4.6s1-.3,1-.7-.5-.7-1.1-.8c-.7-.2-1.6-.4-1.6-1.3s.6-1.3,1.6-1.3,1.3.3,1.6.7l-.3.5c-.3-.3-.7-.6-1.3-.6s-1,.3-1,.7.5.6,1.1.7c.8.2,1.6.4,1.6,1.4s-.6,1.4-1.7,1.4-1.3-.2-1.7-.7l.3-.5Z"/>
      <path class="cls-1" d="M190.1,67.6l1.5,1.5h-1l-1-1c-.3.4-.6.6-.9.8-.3.2-.7.3-1.2.3s-.6,0-.8-.1c-.3,0-.5-.2-.7-.4-.2-.2-.4-.4-.5-.6-.1-.2-.2-.5-.2-.8s0-.5.1-.7c0-.2.2-.4.3-.5.1-.2.3-.3.5-.4.2-.1.4-.2.6-.3-.2-.2-.4-.4-.6-.7-.2-.3-.2-.5-.2-.8s0-.5.1-.7c0-.2.2-.4.4-.5.2-.1.3-.2.5-.3s.4-.1.7-.1.4,0,.6,0c.2,0,.4.2.5.3.2.1.3.3.4.5,0,.2.1.4.1.6s0,.4-.1.6c0,.2-.2.3-.4.5s-.3.3-.5.4c-.2.1-.4.2-.5.3l1.6,1.6.9-1.6h.8l-1.3,2.1ZM187.4,65.8c-.2.1-.4.2-.6.4-.2.1-.3.2-.4.3s-.2.3-.2.4c0,.1,0,.3,0,.5s0,.4.1.5.2.3.3.4c.1.1.3.2.4.3.2,0,.3,0,.5,0s.4,0,.5,0c.2,0,.3-.1.4-.2.1,0,.3-.2.4-.3.1-.1.2-.2.3-.4l-1.8-1.8ZM188.8,63.8c0-.3,0-.5-.3-.6-.2-.2-.4-.2-.7-.2s-.5,0-.7.3c-.2.2-.3.4-.3.7s0,.2,0,.4.1.2.2.3.2.2.2.3c0,0,.2.2.2.2.1,0,.3-.2.4-.2.1,0,.3-.2.4-.3s.2-.2.3-.3c0-.1.1-.3.1-.4Z"/>
    </g>
  </g>
</svg>